<svg width="40" height="41" viewBox="0 0 40 41" fill="none" xmlns="http://www.w3.org/2000/svg">
<path d="M19.9919 2.16187C30.0974 2.16187 38.3382 10.4027 38.3382 20.5082C38.3382 30.6137 30.0974 38.8383 19.9919 38.8383C9.88641 38.8383 1.6618 30.6137 1.6618 20.5082C1.66051 20.288 1.70288 20.0697 1.78647 19.8659C1.87005 19.6621 1.9932 19.477 2.14878 19.3211C2.30437 19.1652 2.48931 19.0417 2.69291 18.9577C2.89651 18.8737 3.11474 18.8309 3.33498 18.8318C3.55412 18.8326 3.77095 18.8767 3.97305 18.9615C4.17514 19.0462 4.35854 19.17 4.51274 19.3257C4.66695 19.4814 4.78893 19.666 4.8717 19.8689C4.95448 20.0718 4.99642 20.2891 4.99514 20.5082C4.99514 28.8122 11.6879 35.505 19.9919 35.505C28.2959 35.505 35.0049 28.8122 35.0049 20.5082C35.0049 12.2042 28.2959 5.4952 19.9919 5.4952C19.5521 5.49349 19.1308 5.31803 18.8199 5.00706C18.5089 4.69609 18.3334 4.27482 18.3317 3.83504C18.3309 3.61617 18.3731 3.39928 18.4561 3.19674C18.5391 2.9942 18.6611 2.80999 18.8153 2.65462C18.9694 2.49925 19.1527 2.37577 19.3546 2.29122C19.5564 2.20667 19.773 2.16272 19.9919 2.16187ZM13.667 3.41512C14.3176 3.42142 14.932 3.80995 15.1937 4.45027C15.545 5.30304 15.1395 6.27907 14.2855 6.62801C14.266 6.6362 14.2534 6.64691 14.237 6.65384C13.3843 7.01479 12.4 6.61101 12.0462 5.7554C11.6935 4.90605 12.096 3.93143 12.9447 3.57766C12.9686 3.56758 12.9951 3.55058 13.0163 3.54176C13.2295 3.45395 13.4501 3.41291 13.667 3.41512ZM8.24384 7.02189C8.68308 7.02551 9.10292 7.2018 9.41245 7.51342C10.0668 8.16488 10.0668 9.22524 9.41245 9.8767C9.39859 9.89056 9.39041 9.89875 9.37655 9.91261C8.72849 10.5703 7.66813 10.5766 7.01327 9.92583C6.35893 9.27438 6.35893 8.21402 7.01327 7.56255C7.03027 7.54554 7.04476 7.53043 7.06177 7.51405C7.37427 7.1994 7.80033 7.02227 8.24384 7.02189ZM19.9919 8.83179C20.2121 8.83049 20.4304 8.87287 20.6342 8.95645C20.838 9.04004 21.0231 9.16318 21.179 9.31877C21.3349 9.47435 21.4584 9.65929 21.5424 9.86289C21.6264 10.0665 21.6692 10.2847 21.6683 10.505V20.5082C21.6674 20.8175 21.5805 21.1205 21.4172 21.3832C21.2539 21.646 21.0208 21.8581 20.7438 21.9958L14.0772 25.3292C13.881 25.4275 13.6674 25.4861 13.4486 25.5017C13.2297 25.5172 13.01 25.4894 12.8019 25.4199C12.5938 25.3503 12.4015 25.2404 12.2361 25.0963C12.0706 24.9523 11.9352 24.777 11.8376 24.5805C11.7393 24.3844 11.6807 24.1707 11.6651 23.9519C11.6495 23.7331 11.6773 23.5133 11.7469 23.3052C11.8164 23.0971 11.9264 22.9049 12.0704 22.7394C12.2145 22.5739 12.3898 22.4385 12.5863 22.3409L18.3317 19.4731V10.505C18.3309 10.2861 18.3731 10.0692 18.4561 9.86666C18.5391 9.66412 18.6611 9.47991 18.8153 9.32454C18.9694 9.16917 19.1527 9.04569 19.3546 8.96114C19.5564 8.87659 19.773 8.83264 19.9919 8.83179ZM4.60125 12.4158C4.81946 12.4145 5.0415 12.4561 5.25555 12.546C6.11131 12.8997 6.51496 13.884 6.15399 14.7367C6.1458 14.7569 6.13509 14.7682 6.12816 14.7852C5.77925 15.639 4.80318 16.048 3.95042 15.6967C3.09669 15.3478 2.68764 14.3717 3.03897 13.519C3.04842 13.4963 3.0566 13.4774 3.06479 13.4572C3.32646 12.8118 3.94671 12.4196 4.60125 12.4158Z" fill="#555555"/>
</svg>
